<svg width="1366" height="814" viewBox="0 0 1366 814" fill="none" xmlns="http://www.w3.org/2000/svg">
<g clip-path="url(#clip0_6235_30)">
<rect width="1366" height="814" fill="#FCFCFD"/>
<g filter="url(#filter0_f_6235_30)">
<circle cx="299.5" cy="271.5" r="341.5" fill="url(#paint0_radial_6235_30)" fill-opacity="0.48"/>
</g>
<g filter="url(#filter1_f_6235_30)">
<circle cx="216" cy="645" r="253" fill="url(#paint1_linear_6235_30)" fill-opacity="0.7"/>
</g>
<g filter="url(#filter2_f_6235_30)">
<ellipse cx="913.078" cy="534.563" rx="463.5" ry="451.5" transform="rotate(-105 913.078 534.563)" fill="url(#paint2_linear_6235_30)" fill-opacity="0.2"/>
</g>
<path d="M604.311 313.166H602.317C602.24 312.74 602.097 312.365 601.888 312.041C601.68 311.717 601.424 311.442 601.121 311.217C600.819 310.991 600.48 310.82 600.105 310.705C599.734 310.59 599.34 310.533 598.923 310.533C598.168 310.533 597.493 310.722 596.896 311.102C596.304 311.481 595.835 312.037 595.49 312.77C595.149 313.503 594.979 314.398 594.979 315.455C594.979 316.52 595.149 317.419 595.49 318.152C595.835 318.885 596.306 319.439 596.903 319.814C597.499 320.189 598.17 320.376 598.916 320.376C599.33 320.376 599.722 320.321 600.092 320.21C600.467 320.095 600.806 319.927 601.109 319.705C601.411 319.484 601.667 319.213 601.876 318.893C602.089 318.57 602.236 318.199 602.317 317.781L604.311 317.788C604.205 318.431 603.998 319.023 603.691 319.565C603.388 320.102 602.999 320.566 602.521 320.958C602.048 321.346 601.507 321.646 600.898 321.859C600.288 322.072 599.624 322.179 598.903 322.179C597.77 322.179 596.76 321.911 595.874 321.374C594.987 320.832 594.288 320.059 593.777 319.053C593.27 318.048 593.016 316.848 593.016 315.455C593.016 314.057 593.272 312.857 593.783 311.856C594.295 310.85 594.994 310.079 595.88 309.542C596.766 309.001 597.774 308.73 598.903 308.73C599.598 308.73 600.246 308.83 600.847 309.031C601.452 309.227 601.995 309.516 602.477 309.9C602.958 310.279 603.357 310.744 603.672 311.293C603.987 311.839 604.2 312.463 604.311 313.166ZM607.692 322H605.596L610.307 308.909H612.589L617.3 322H615.203L611.502 311.287H611.4L607.692 322ZM608.044 316.874H614.845V318.536H608.044V316.874ZM629.756 308.909V322H627.941L621.287 312.399H621.165V322H619.19V308.909H621.018L627.679 318.523H627.8V308.909H629.756ZM636.391 308.909H638.635L642.055 314.86H642.195L645.615 308.909H647.858L643.109 316.861V322H641.14V316.861L636.391 308.909ZM660.427 315.455C660.427 316.852 660.171 318.054 659.66 319.06C659.148 320.061 658.447 320.832 657.557 321.374C656.67 321.911 655.663 322.179 654.533 322.179C653.4 322.179 652.388 321.911 651.497 321.374C650.611 320.832 649.912 320.059 649.401 319.053C648.889 318.048 648.634 316.848 648.634 315.455C648.634 314.057 648.889 312.857 649.401 311.856C649.912 310.85 650.611 310.079 651.497 309.542C652.388 309.001 653.4 308.73 654.533 308.73C655.663 308.73 656.67 309.001 657.557 309.542C658.447 310.079 659.148 310.85 659.66 311.856C660.171 312.857 660.427 314.057 660.427 315.455ZM658.471 315.455C658.471 314.389 658.298 313.492 657.953 312.763C657.612 312.031 657.143 311.477 656.547 311.102C655.955 310.722 655.283 310.533 654.533 310.533C653.779 310.533 653.106 310.722 652.513 311.102C651.921 311.477 651.452 312.031 651.107 312.763C650.766 313.492 650.596 314.389 650.596 315.455C650.596 316.52 650.766 317.419 651.107 318.152C651.452 318.881 651.921 319.435 652.513 319.814C653.106 320.189 653.779 320.376 654.533 320.376C655.283 320.376 655.955 320.189 656.547 319.814C657.143 319.435 657.612 318.881 657.953 318.152C658.298 317.419 658.471 316.52 658.471 315.455ZM671.308 308.909H673.289V317.519C673.289 318.435 673.074 319.247 672.644 319.955C672.213 320.658 671.608 321.212 670.828 321.616C670.048 322.017 669.134 322.217 668.086 322.217C667.042 322.217 666.13 322.017 665.35 321.616C664.57 321.212 663.965 320.658 663.535 319.955C663.105 319.247 662.889 318.435 662.889 317.519V308.909H664.865V317.359C664.865 317.952 664.994 318.478 665.254 318.938C665.519 319.398 665.892 319.761 666.373 320.025C666.855 320.285 667.426 320.415 668.086 320.415C668.751 320.415 669.324 320.285 669.806 320.025C670.291 319.761 670.662 319.398 670.918 318.938C671.178 318.478 671.308 317.952 671.308 317.359V308.909ZM688.064 312.348C687.996 311.743 687.715 311.274 687.221 310.942C686.726 310.605 686.104 310.437 685.354 310.437C684.817 310.437 684.353 310.522 683.961 310.692C683.569 310.859 683.264 311.089 683.047 311.383C682.834 311.673 682.727 312.003 682.727 312.374C682.727 312.685 682.8 312.953 682.944 313.179C683.094 313.405 683.287 313.594 683.526 313.748C683.769 313.897 684.029 314.023 684.306 314.125C684.583 314.223 684.849 314.304 685.105 314.368L686.383 314.7C686.801 314.803 687.229 314.941 687.668 315.116C688.107 315.29 688.514 315.521 688.889 315.806C689.264 316.092 689.567 316.445 689.797 316.867C690.031 317.289 690.148 317.794 690.148 318.382C690.148 319.124 689.956 319.782 689.573 320.357C689.194 320.933 688.642 321.386 687.917 321.719C687.197 322.051 686.326 322.217 685.303 322.217C684.323 322.217 683.475 322.062 682.759 321.751C682.043 321.44 681.483 320.999 681.078 320.428C680.673 319.852 680.449 319.17 680.407 318.382H682.388C682.427 318.855 682.58 319.249 682.849 319.565C683.121 319.876 683.469 320.108 683.89 320.261C684.317 320.411 684.783 320.485 685.29 320.485C685.849 320.485 686.345 320.398 686.78 320.223C687.219 320.044 687.564 319.797 687.815 319.482C688.067 319.162 688.192 318.789 688.192 318.363C688.192 317.975 688.081 317.658 687.86 317.411C687.643 317.163 687.346 316.959 686.971 316.797C686.601 316.635 686.181 316.492 685.712 316.369L684.165 315.947C683.117 315.661 682.286 315.241 681.672 314.688C681.063 314.134 680.758 313.401 680.758 312.489C680.758 311.734 680.963 311.076 681.372 310.513C681.781 309.951 682.335 309.514 683.034 309.203C683.733 308.888 684.521 308.73 685.399 308.73C686.285 308.73 687.067 308.886 687.745 309.197C688.427 309.508 688.964 309.936 689.356 310.482C689.748 311.023 689.952 311.645 689.969 312.348H688.064ZM692.509 322V308.909H700.716V310.609H694.484V314.598H700.288V316.292H694.484V320.3H700.793V322H692.509ZM703.354 322V308.909H711.562V310.609H705.329V314.598H711.133V316.292H705.329V320.3H711.638V322H703.354ZM727.382 308.909H729.363V317.519C729.363 318.435 729.148 319.247 728.718 319.955C728.287 320.658 727.682 321.212 726.903 321.616C726.123 322.017 725.209 322.217 724.16 322.217C723.116 322.217 722.204 322.017 721.425 321.616C720.645 321.212 720.04 320.658 719.609 319.955C719.179 319.247 718.964 318.435 718.964 317.519V308.909H720.939V317.359C720.939 317.952 721.069 318.478 721.329 318.938C721.593 319.398 721.966 319.761 722.447 320.025C722.929 320.285 723.5 320.415 724.16 320.415C724.825 320.415 725.398 320.285 725.88 320.025C726.366 319.761 726.736 319.398 726.992 318.938C727.252 318.478 727.382 317.952 727.382 317.359V308.909ZM739.375 312.348C739.307 311.743 739.026 311.274 738.531 310.942C738.037 310.605 737.415 310.437 736.665 310.437C736.128 310.437 735.663 310.522 735.271 310.692C734.879 310.859 734.575 311.089 734.357 311.383C734.144 311.673 734.038 312.003 734.038 312.374C734.038 312.685 734.11 312.953 734.255 313.179C734.404 313.405 734.598 313.594 734.837 313.748C735.08 313.897 735.339 314.023 735.616 314.125C735.893 314.223 736.16 314.304 736.415 314.368L737.694 314.7C738.112 314.803 738.54 314.941 738.979 315.116C739.418 315.29 739.825 315.521 740.2 315.806C740.575 316.092 740.877 316.445 741.107 316.867C741.342 317.289 741.459 317.794 741.459 318.382C741.459 319.124 741.267 319.782 740.884 320.357C740.504 320.933 739.952 321.386 739.228 321.719C738.508 322.051 737.636 322.217 736.614 322.217C735.634 322.217 734.786 322.062 734.07 321.751C733.354 321.44 732.793 320.999 732.388 320.428C731.984 319.852 731.76 319.17 731.717 318.382H733.699C733.737 318.855 733.891 319.249 734.159 319.565C734.432 319.876 734.779 320.108 735.201 320.261C735.627 320.411 736.094 320.485 736.601 320.485C737.159 320.485 737.656 320.398 738.09 320.223C738.529 320.044 738.874 319.797 739.126 319.482C739.377 319.162 739.503 318.789 739.503 318.363C739.503 317.975 739.392 317.658 739.17 317.411C738.953 317.163 738.657 316.959 738.282 316.797C737.911 316.635 737.491 316.492 737.023 316.369L735.476 315.947C734.428 315.661 733.597 315.241 732.983 314.688C732.374 314.134 732.069 313.401 732.069 312.489C732.069 311.734 732.273 311.076 732.683 310.513C733.092 309.951 733.646 309.514 734.344 309.203C735.043 308.888 735.832 308.73 736.71 308.73C737.596 308.73 738.378 308.886 739.055 309.197C739.737 309.508 740.274 309.936 740.666 310.482C741.058 311.023 741.263 311.645 741.28 312.348H739.375ZM604.004 332.909V346H602.189L595.535 336.399H595.413V346H593.438V332.909H595.266L601.927 342.523H602.048V332.909H604.004ZM618.257 339.455C618.257 340.852 618.001 342.054 617.49 343.06C616.979 344.061 616.278 344.832 615.387 345.374C614.501 345.911 613.493 346.179 612.363 346.179C611.23 346.179 610.218 345.911 609.327 345.374C608.441 344.832 607.742 344.059 607.231 343.053C606.719 342.048 606.464 340.848 606.464 339.455C606.464 338.057 606.719 336.857 607.231 335.856C607.742 334.85 608.441 334.079 609.327 333.542C610.218 333.001 611.23 332.73 612.363 332.73C613.493 332.73 614.501 333.001 615.387 333.542C616.278 334.079 616.979 334.85 617.49 335.856C618.001 336.857 618.257 338.057 618.257 339.455ZM616.301 339.455C616.301 338.389 616.128 337.492 615.783 336.763C615.442 336.031 614.974 335.477 614.377 335.102C613.785 334.722 613.113 334.533 612.363 334.533C611.609 334.533 610.936 334.722 610.344 335.102C609.751 335.477 609.282 336.031 608.937 336.763C608.596 337.492 608.426 338.389 608.426 339.455C608.426 340.52 608.596 341.419 608.937 342.152C609.282 342.881 609.751 343.435 610.344 343.814C610.936 344.189 611.609 344.376 612.363 344.376C613.113 344.376 613.785 344.189 614.377 343.814C614.974 343.435 615.442 342.881 615.783 342.152C616.128 341.419 616.301 340.52 616.301 339.455ZM623.124 346L619.494 332.909H621.571L624.122 343.047H624.243L626.896 332.909H628.954L631.607 343.053H631.728L634.272 332.909H636.356L632.719 346H630.731L627.976 336.195H627.874L625.119 346H623.124ZM654.292 339.455C654.292 340.852 654.036 342.054 653.525 343.06C653.014 344.061 652.313 344.832 651.422 345.374C650.536 345.911 649.528 346.179 648.399 346.179C647.265 346.179 646.253 345.911 645.362 345.374C644.476 344.832 643.777 344.059 643.266 343.053C642.754 342.048 642.499 340.848 642.499 339.455C642.499 338.057 642.754 336.857 643.266 335.856C643.777 334.85 644.476 334.079 645.362 333.542C646.253 333.001 647.265 332.73 648.399 332.73C649.528 332.73 650.536 333.001 651.422 333.542C652.313 334.079 653.014 334.85 653.525 335.856C654.036 336.857 654.292 338.057 654.292 339.455ZM652.336 339.455C652.336 338.389 652.164 337.492 651.818 336.763C651.477 336.031 651.009 335.477 650.412 335.102C649.82 334.722 649.149 334.533 648.399 334.533C647.644 334.533 646.971 334.722 646.379 335.102C645.786 335.477 645.318 336.031 644.972 336.763C644.632 337.492 644.461 338.389 644.461 339.455C644.461 340.52 644.632 341.419 644.972 342.152C645.318 342.881 645.786 343.435 646.379 343.814C646.971 344.189 647.644 344.376 648.399 344.376C649.149 344.376 649.82 344.189 650.412 343.814C651.009 343.435 651.477 342.881 651.818 342.152C652.164 341.419 652.336 340.52 652.336 339.455ZM656.755 346V332.909H661.421C662.435 332.909 663.277 333.084 663.946 333.433C664.619 333.783 665.122 334.266 665.454 334.884C665.787 335.498 665.953 336.207 665.953 337.013C665.953 337.814 665.784 338.519 665.448 339.129C665.115 339.734 664.613 340.205 663.939 340.541C663.27 340.878 662.429 341.046 661.414 341.046H657.88V339.346H661.235C661.875 339.346 662.395 339.254 662.795 339.071C663.2 338.888 663.496 338.621 663.684 338.272C663.871 337.923 663.965 337.503 663.965 337.013C663.965 336.518 663.869 336.09 663.677 335.728C663.49 335.366 663.194 335.089 662.789 334.897C662.388 334.701 661.862 334.603 661.21 334.603H658.73V346H656.755ZM663.217 340.094L666.451 346H664.201L661.031 340.094H663.217ZM593.438 371V357.909H601.646V359.609H595.413V363.598H601.217V365.292H595.413V369.3H601.722V371H593.438ZM605.428 357.909L609.072 368.571H609.219L612.862 357.909H614.997L610.286 371H608.004L603.293 357.909H605.428ZM616.887 371V357.909H625.095V359.609H618.863V363.598H624.667V365.292H618.863V369.3H625.172V371H616.887ZM627.733 371V357.909H632.399C633.414 357.909 634.255 358.084 634.924 358.433C635.597 358.783 636.1 359.266 636.433 359.884C636.765 360.498 636.931 361.207 636.931 362.013C636.931 362.814 636.763 363.519 636.426 364.129C636.094 364.734 635.591 365.205 634.918 365.541C634.249 365.878 633.407 366.046 632.393 366.046H628.858V364.346H632.214C632.853 364.346 633.373 364.254 633.774 364.071C634.178 363.888 634.475 363.621 634.662 363.272C634.85 362.923 634.943 362.503 634.943 362.013C634.943 361.518 634.847 361.09 634.656 360.728C634.468 360.366 634.172 360.089 633.767 359.897C633.367 359.701 632.84 359.603 632.188 359.603H629.708V371H627.733ZM634.195 365.094L637.43 371H635.18L632.009 365.094H634.195ZM641.271 367.235V367.114C641.28 366.321 641.359 365.69 641.508 365.222C641.661 364.753 641.879 364.374 642.16 364.084C642.441 363.794 642.78 363.53 643.176 363.291C643.432 363.129 643.662 362.948 643.867 362.748C644.071 362.548 644.233 362.317 644.352 362.058C644.472 361.798 644.531 361.51 644.531 361.195C644.531 360.815 644.442 360.487 644.263 360.21C644.084 359.933 643.845 359.72 643.547 359.571C643.253 359.418 642.925 359.341 642.563 359.341C642.235 359.341 641.921 359.409 641.623 359.545C641.325 359.682 641.078 359.895 640.882 360.185C640.686 360.47 640.573 360.839 640.543 361.29H638.6C638.629 360.523 638.823 359.876 639.181 359.347C639.539 358.815 640.012 358.412 640.6 358.139C641.193 357.866 641.847 357.73 642.563 357.73C643.347 357.73 644.033 357.877 644.621 358.171C645.209 358.461 645.665 358.868 645.989 359.392C646.317 359.912 646.481 360.519 646.481 361.214C646.481 361.691 646.406 362.121 646.257 362.505C646.108 362.884 645.895 363.223 645.618 363.521C645.345 363.82 645.017 364.084 644.634 364.314C644.271 364.54 643.977 364.774 643.752 365.017C643.53 365.26 643.368 365.548 643.266 365.88C643.164 366.212 643.108 366.624 643.1 367.114V367.235H641.271ZM642.237 371.121C641.887 371.121 641.587 370.998 641.335 370.751C641.084 370.499 640.958 370.197 640.958 369.843C640.958 369.494 641.084 369.195 641.335 368.948C641.587 368.697 641.887 368.571 642.237 368.571C642.582 368.571 642.88 368.697 643.132 368.948C643.387 369.195 643.515 369.494 643.515 369.843C643.515 370.077 643.455 370.293 643.336 370.489C643.221 370.68 643.068 370.834 642.876 370.949C642.684 371.064 642.471 371.121 642.237 371.121Z" fill="#EFF8FF"/>
</g>
<defs>
<filter id="filter0_f_6235_30" x="-142" y="-170" width="883" height="883" filterUnits="userSpaceOnUse" color-interpolation-filters="sRGB">
<feFlood flood-opacity="0" result="BackgroundImageFix"/>
<feBlend mode="normal" in="SourceGraphic" in2="BackgroundImageFix" result="shape"/>
<feGaussianBlur stdDeviation="50" result="effect1_foregroundBlur_6235_30"/>
</filter>
<filter id="filter1_f_6235_30" x="-137" y="292" width="706" height="706" filterUnits="userSpaceOnUse" color-interpolation-filters="sRGB">
<feFlood flood-opacity="0" result="BackgroundImageFix"/>
<feBlend mode="normal" in="SourceGraphic" in2="BackgroundImageFix" result="shape"/>
<feGaussianBlur stdDeviation="50" result="effect1_foregroundBlur_6235_30"/>
</filter>
<filter id="filter2_f_6235_30" x="360.65" y="-28.2553" width="1104.86" height="1125.64" filterUnits="userSpaceOnUse" color-interpolation-filters="sRGB">
<feFlood flood-opacity="0" result="BackgroundImageFix"/>
<feBlend mode="normal" in="SourceGraphic" in2="BackgroundImageFix" result="shape"/>
<feGaussianBlur stdDeviation="50" result="effect1_foregroundBlur_6235_30"/>
</filter>
<radialGradient id="paint0_radial_6235_30" cx="0" cy="0" r="1" gradientUnits="userSpaceOnUse" gradientTransform="translate(247 231) rotate(82.1746) scale(385.591)">
<stop stop-color="#7A5AF8" stop-opacity="0.3"/>
<stop offset="0.473958" stop-color="#F670C7" stop-opacity="0.17"/>
<stop offset="0.927083" stop-color="#F87171" stop-opacity="0.16"/>
</radialGradient>
<linearGradient id="paint1_linear_6235_30" x1="339.03" y1="434.903" x2="-37" y2="790.743" gradientUnits="userSpaceOnUse">
<stop stop-color="#32D583" stop-opacity="0.31"/>
<stop offset="1" stop-color="#32D583" stop-opacity="0.37"/>
</linearGradient>
<linearGradient id="paint2_linear_6235_30" x1="1278.24" y1="769.731" x2="775.993" y2="287.325" gradientUnits="userSpaceOnUse">
<stop stop-color="#53B1FD" stop-opacity="0"/>
<stop offset="0.839565" stop-color="#FEB273" stop-opacity="0.33"/>
</linearGradient>
<clipPath id="clip0_6235_30">
<rect width="1366" height="814" fill="white"/>
</clipPath>
</defs>
</svg>
